<svg width="64" height="64" viewBox="0 0 64 64" fill="none" xmlns="http://www.w3.org/2000/svg">
<rect width="64" height="64" rx="16" fill="white"/>
<path d="M24.0611 20.74V43H20.4611V40.93C19.8411 41.69 19.0711 42.26 18.1511 42.64C17.2511 43.02 16.2511 43.21 15.1511 43.21C13.6111 43.21 12.2211 42.87 10.9811 42.19C9.76113 41.51 8.80113 40.55 8.10113 39.31C7.40113 38.05 7.05113 36.61 7.05113 34.99C7.05113 33.37 7.40113 31.94 8.10113 30.7C8.80113 29.46 9.76113 28.5 10.9811 27.82C12.2211 27.14 13.6111 26.8 15.1511 26.8C16.2111 26.8 17.1811 26.98 18.0611 27.34C18.9411 27.7 19.6911 28.24 20.3111 28.96V20.74H24.0611ZM15.6011 40C16.5011 40 17.3111 39.8 18.0311 39.4C18.7511 38.98 19.3211 38.39 19.7411 37.63C20.1611 36.87 20.3711 35.99 20.3711 34.99C20.3711 33.99 20.1611 33.11 19.7411 32.35C19.3211 31.59 18.7511 31.01 18.0311 30.61C17.3111 30.19 16.5011 29.98 15.6011 29.98C14.7011 29.98 13.8911 30.19 13.1711 30.61C12.4511 31.01 11.8811 31.59 11.4611 32.35C11.0411 33.11 10.8311 33.99 10.8311 34.99C10.8311 35.99 11.0411 36.87 11.4611 37.63C11.8811 38.39 12.4511 38.98 13.1711 39.4C13.8911 39.8 14.7011 40 15.6011 40Z" fill="black"/>
<path d="M49.1868 26.8C51.2068 26.8 52.8068 27.39 53.9868 28.57C55.1668 29.73 55.7568 31.48 55.7568 33.82V43H52.0068V34.3C52.0068 32.9 51.6968 31.85 51.0768 31.15C50.4568 30.43 49.5668 30.07 48.4068 30.07C47.1468 30.07 46.1368 30.49 45.3768 31.33C44.6168 32.15 44.2368 33.33 44.2368 34.87V43H40.4868V34.3C40.4868 32.9 40.1768 31.85 39.5568 31.15C38.9368 30.43 38.0468 30.07 36.8868 30.07C35.6068 30.07 34.5868 30.48 33.8268 31.3C33.0868 32.12 32.7168 33.31 32.7168 34.87V43H28.9668V26.98H32.5368V29.02C33.1368 28.3 33.8868 27.75 34.7868 27.37C35.6868 26.99 36.6868 26.8 37.7868 26.8C38.9868 26.8 40.0468 27.03 40.9668 27.49C41.9068 27.93 42.6468 28.59 43.1868 29.47C43.8468 28.63 44.6968 27.98 45.7368 27.52C46.7768 27.04 47.9268 26.8 49.1868 26.8Z" fill="#176DEA"/>
</svg>
